<?xml version="1.0" encoding="utf-8"?>
<!-- Generator: Adobe Illustrator 23.0.0, SVG Export Plug-In . SVG Version: 6.00 Build 0)  -->
<svg version="1.1" id="Camada_1" xmlns="http://www.w3.org/2000/svg" xmlns:xlink="http://www.w3.org/1999/xlink" x="0px" y="0px"
	 viewBox="0 0 53.07 77.65" style="enable-background:new 0 0 53.07 77.65;" xml:space="preserve">
<style type="text/css">
	.st0{fill:#DB8852;}
	.st1{fill:#C2C2C2;}
	.st2{fill:#FFFFFF;}
	.st3{fill:#F3F3F3;}
	.st4{fill:none;}
	.st5{fill:#E2E1E3;}
	.st6{fill:#DD6928;}
	.st7{clip-path:url(#SVGID_2_);}
	.st8{display:none;fill:#5F9ABF;}
	.st9{display:none;fill:#E4E2DB;}
</style>
<path class="st0" d="M34.57,78.54"/>
<path class="st1" d="M27.29,71.07"/>
<line class="st2" x1="3.37" y1="72.24" x2="0.74" y2="70.34"/>
<line class="st3" x1="3.37" y1="72.24" x2="1.98" y2="71.23"/>
<path class="st4" d="M34.57,78.54"/>
<g>
	<path class="st5" d="M42.93,72.09c0,2.38-7.33,4.31-16.36,4.31c-9.04,0-16.36-1.93-16.36-4.31c0-2.38,7.33-4.31,16.36-4.31
		C35.61,67.78,42.93,69.71,42.93,72.09z"/>
	<path class="st6" d="M26.57,1.87c-14.06,0-25.47,11.4-25.47,25.47c0,15.04,25.47,44.08,25.47,44.08s25.47-27.93,25.47-44.08
		C52.04,13.27,40.64,1.87,26.57,1.87z"/>
	<g>
		<defs>
			<path id="SVGID_1_" d="M26.57,1.87c-14.06,0-25.47,11.4-25.47,25.47c0,15.04,25.47,44.08,25.47,44.08s25.47-27.93,25.47-44.08
				C52.04,13.27,40.64,1.87,26.57,1.87z"/>
		</defs>
		<clipPath id="SVGID_2_">
			<use xlink:href="#SVGID_1_"  style="overflow:visible;"/>
		</clipPath>
		<g class="st7">
			<path class="st1" d="M22.3,66.53c2.45-3.93,10.15-14.25,10.15-14.25c1.87-2.64,0.99-5.96-3.59-9.94l-5.14-4.47
				c-4.57-3.97-7.57-4.86-10.73-2.42c-0.01,0.01-0.02,0.02-0.04,0.03c-0.37,0.41-7.62,8.38-12.38,12.17
				c-0.24,0.19,0.91,0.96,1.48,1.32c0.18,0.12,0.39,0.14,0.51,0.05l0.24-0.17c0.39-0.27,1.08,0.42,0.77,0.77l-0.06,0.07
				c-0.14,0.15-0.07,0.44,0.16,0.64l3.38,2.98c0.22,0.2,0.52,0.24,0.66,0.09l2.47-2.62c0.32-0.34,1.09,0.29,0.84,0.69l-1.93,3.1
				C9,54.73,9.08,55,9.3,55.18l1.18,1c0.22,0.19,0.5,0.22,0.64,0.08l0.4-0.41c0.33-0.33,1.09,0.31,0.84,0.7l-0.37,0.57
				c-0.11,0.17-0.02,0.44,0.2,0.62l2.12,1.78c0.23,0.2,0.53,0.22,0.66,0.06c0.02-0.03,0.05-0.06,0.07-0.09
				c0.3-0.37,1.11,0.26,0.86,0.67l-0.09,0.15c-0.1,0.16-0.02,0.42,0.19,0.61l2.39,2.08c0.23,0.2,0.52,0.23,0.66,0.08l1.47-1.64
				c0.3-0.33,1.04,0.23,0.87,0.65l-1.03,2.45c-0.06,0.14-0.01,0.33,0.13,0.49C20.98,65.59,22.11,66.83,22.3,66.53z"/>
			<path class="st8" d="M67.56,39.68l-7.74-6.72c-0.03,0.02-0.06,0.05-0.09,0.07c0,0-0.11,0.13-0.31,0.35l7.78,6.76
				c0.2-0.26,0.32-0.41,0.32-0.41C67.54,39.71,67.55,39.69,67.56,39.68z"/>
			<path class="st2" d="M31.88,53.08c0.03-0.04,0.05-0.06,0.05-0.06c2.86-3.79,2.57-7.8-2.04-11.8l-5.17-4.49
				c-4.59-3.99-8.01-4.44-12.37-0.61L31.88,53.08z"/>
			<polygon class="st2" points="57.67,1.9 28.16,35.85 30.6,37.97 60.31,3.81 			"/>
			<polygon class="st3" points="58.92,2.8 29.31,36.85 30.6,37.97 60.31,3.81 			"/>
			<path class="st2" d="M31.28,42.4l1.52-1.74c0.3-0.34,0.26-0.86-0.08-1.16l-6.46-5.61c-0.34-0.3-0.86-0.26-1.16,0.08l-1.52,1.74
				L31.28,42.4z"/>
			
				<rect x="27.23" y="33.52" transform="matrix(0.6561 -0.7547 0.7547 0.6561 -19.5892 34.2624)" class="st3" width="1.14" height="10.21"/>
			<path class="st9" d="M67.52,39.73c1.14-1.5,1.02-3.1-0.81-4.69l-2.05-1.78c-1.83-1.59-3.19-1.76-4.92-0.23
				c0,0-0.3,0.35-0.61,0.69c0.36,0.31,0.73,0.62,1.09,0.93c0.53,0.45,1.09,0.86,1.6,1.32c1.47,1.34,2.18,1.9,2.14,2.4
				c-0.04,0.48-0.32,0.9-0.59,1.27c-0.15,0.2-4.22,5.74-4.44,6l1.05,0.91l2.23-2.51l-1.66,3.09c0,0,0.66,0.93,0.81,0.71
				C62.9,45.63,67.52,39.73,67.52,39.73z"/>
			<path class="st9" d="M67.52,39.73c1.14-1.5,1.02-3.1-0.81-4.69l-2.05-1.78c-1.64-1.43-2.9-1.71-4.4-0.65
				c0.65,0.56,1.32,1.11,1.98,1.67c0.6,0.51,1.19,1.03,1.76,1.59c0.25,0.24,0.48,0.5,0.73,0.74c0.21,0.2,0.43,0.38,0.63,0.59
				c0.35,0.38,0.62,0.85,0.42,1.37c-0.11,0.27-0.29,0.5-0.44,0.74c-0.21,0.32-0.35,0.75-0.69,0.93c-0.82,0.44-1.18,1.13-1.53,1.82
				c-0.36,0.71-1.02,1.22-1.53,1.82c-0.66,0.78-1.33,1.55-2,2.32l0.4,0.35l2.23-2.51l-1.66,3.09c0,0,0.66,0.93,0.81,0.71
				C62.9,45.63,67.52,39.73,67.52,39.73z"/>
			<path class="st9" d="M67.52,39.73c1.14-1.5,1.02-3.1-0.81-4.69l-2.05-1.78c-1.39-1.21-2.52-1.6-3.74-1.04
				c0.41,0.37,0.81,0.73,1.23,1.08c0.68,0.57,3.54,2.96,4.31,4.02c0.46,0.63,0.36,1.05,0.32,1.34c-0.04,0.29-0.1,0.58-0.19,0.85
				c-0.22,0.65-3.11,4.17-4.1,5.4c-0.5,0.62-0.95,1.28-1.42,1.92c-0.12,0.16-0.24,0.32-0.36,0.48c0.2,0.26,0.56,0.67,0.67,0.52
				C62.9,45.63,67.52,39.73,67.52,39.73z"/>
		</g>
	</g>
</g>
</svg>
