<svg xmlns="http://www.w3.org/2000/svg" xmlns:xlink="http://www.w3.org/1999/xlink" viewBox="0 0 274.96 342.88"><defs><style>.cls-1{fill:none;}.cls-2{isolation:isolate;}.cls-3{fill:#db8852;}.cls-4{fill:#c2c2c2;}.cls-5{fill:#fff;}.cls-6{fill:#f3f3f3;}.cls-6,.cls-7{mix-blend-mode:multiply;}.cls-7{fill:#e2e1e3;}.cls-8{fill:#f06;}.cls-9{clip-path:url(#clip-path);}</style><clipPath id="clip-path" transform="translate(-22.47 -22)"><path class="cls-1" d="M142.2,22A117.16,117.16,0,0,0,25,139.16C25,208.35,142.2,342,142.2,342S259.36,213.49,259.36,139.16A117.16,117.16,0,0,0,142.2,22Z"/></clipPath></defs><title>icon_cleaning_marker_pink</title><g class="cls-2"><g id="Camada_1" data-name="Camada 1"><path class="cls-3" d="M179,374.76" transform="translate(-22.47 -22)"/><path class="cls-4" d="M145.52,340.38" transform="translate(-22.47 -22)"/><line class="cls-5" x1="13" y1="323.77" x2="0.87" y2="315.02"/><line class="cls-6" x1="13" y1="323.77" x2="6.59" y2="319.14"/><path class="cls-1" d="M179,374.76" transform="translate(-22.47 -22)"/><path class="cls-7" d="M217.48,345.07c0,10.94-33.7,19.81-75.28,19.81S66.92,356,66.92,345.07s33.7-19.81,75.28-19.81S217.48,334.13,217.48,345.07Z" transform="translate(-22.47 -22)"/><path class="cls-8" d="M142.2,22A117.16,117.16,0,0,0,25,139.16C25,208.35,142.2,342,142.2,342S259.36,213.49,259.36,139.16A117.16,117.16,0,0,0,142.2,22Z" transform="translate(-22.47 -22)"/><g class="cls-9"><path class="cls-4" d="M122.56,319.48c11.28-18.07,46.71-65.55,46.71-65.55,8.61-12.16,4.57-27.43-16.5-45.74L129.1,187.63c-21-18.26-34.85-22.37-49.36-11.12a.75.75,0,0,0-.16.15c-1.72,1.9-35.06,38.55-57,56-1.09.87,4.17,4.4,6.79,6.07a2.2,2.2,0,0,0,2.36.22l1.11-.77c1.77-1.22,5,2,3.56,3.53l-.28.3c-.64.71-.31,2,.73,3l15.56,13.72c1,.91,2.38,1.09,3,.4L66.8,247c1.48-1.56,5,1.35,3.89,3.19l-8.87,14.26c-.48.76-.08,2,.91,2.83l5.43,4.6c1,.86,2.31,1,3,.37l1.85-1.9c1.5-1.54,5,1.41,3.85,3.22l-1.68,2.6c-.5.77-.09,2,.92,2.86l9.73,8.18c1.07.9,2.42,1,3,.27l.33-.42c1.38-1.72,5.11,1.21,4,3.11l-.43.69c-.46.75-.07,1.95.89,2.79l11,9.56c1,.91,2.39,1.07,3,.37l6.78-7.53c1.37-1.52,4.8,1.06,4,3l-4.71,11.25a2.27,2.27,0,0,0,.6,2.26C116.49,315.16,121.68,320.88,122.56,319.48Z" transform="translate(-22.47 -22)"/><path class="cls-5" d="M166.61,257.63l.24-.3c13.17-17.42,11.8-35.89-9.38-54.3l-23.81-20.68C112.53,164,96.8,162,76.73,179.56Z" transform="translate(-22.47 -22)"/><polygon class="cls-5" points="262.83 0.16 127.03 156.34 138.28 166.11 274.96 8.91 262.83 0.16"/><polygon class="cls-6" points="268.55 4.29 132.33 160.94 138.28 166.11 274.96 8.91 268.55 4.29"/><path class="cls-5" d="M163.85,208.48l7-8a3.79,3.79,0,0,0-.39-5.35L140.72,169.3a3.77,3.77,0,0,0-5.34.36l-7,8Z" transform="translate(-22.47 -22)"/><rect class="cls-6" x="145.23" y="167.63" width="5.22" height="46.96" transform="translate(-115.85 155.3) rotate(-49)"/></g></g></g></svg>